<svg width="14" height="18" viewBox="0 0 14 18" fill="none" xmlns="http://www.w3.org/2000/svg">
<path d="M6.99981 10.9842V17.2054L4.80371 10.3689L6.99981 10.9842Z" fill="#E8EAE9"/>
<path d="M8.64666 8.31793H5.35254V11.3944H8.64666V8.31793Z" fill="#F7B64C"/>
<path d="M7.00012 0.797699C5.25012 0.797699 3.84326 2.19919 3.84326 3.94252V5.58329C3.84326 7.25827 5.21582 8.5914 6.86289 8.5914H7.10309C8.78448 8.5914 10.1227 7.22407 10.1227 5.58329V3.94252C10.157 2.19919 8.75012 0.797699 7.00012 0.797699Z" fill="#415A6B"/>
<path d="M7.89264 3.22464C7.17205 4.79706 4.94167 5.17306 4.25537 5.24142V6.91639C4.25537 8.42042 5.49067 9.651 7.00046 9.651C8.51026 9.651 9.74556 8.42042 9.74556 6.91639V4.93377C8.33873 4.59196 7.89264 3.22464 7.89264 3.22464Z" fill="#FFD15C"/>
<path d="M5.35274 9.41177L6.99981 10.9842L5.90177 12.7275L4.80371 10.3689L5.35274 9.41177Z" fill="#F3F3F3"/>
<path d="M4.80392 10.3689L2.05883 11.5311C1.44118 11.8045 0.995089 12.3515 0.857855 13.0009L0 17.2054H7.00001L4.80392 10.3689Z" fill="#344A5E"/>
<path d="M4.80414 10.3689L7.00024 17.2054L3.98061 13.8897L4.56397 13.1035L3.56885 13.0351L3.98061 10.7107L4.80414 10.3689Z" fill="#415A6B"/>
<path d="M7 10.9842V17.2054L9.19609 10.3689L7 10.9842Z" fill="#E8EAE9"/>
<path d="M8.64706 9.41177L7 10.9842L8.09803 12.7275L9.19609 10.3689L8.64706 9.41177Z" fill="#F3F3F3"/>
<path d="M9.19609 10.3689L11.9412 11.5311C12.5588 11.8045 13.0049 12.3515 13.1422 13.001L14 17.2054H7L9.19609 10.3689Z" fill="#344A5E"/>
<path d="M9.19609 10.3689L7 17.2054L10.0196 13.8897L9.43627 13.1035L10.4314 13.0351L10.0196 10.7107L9.19609 10.3689Z" fill="#415A6B"/>
<path d="M7.89221 12.3515L7.00006 10.9843L6.10791 12.3515L6.55397 12.7276L6.10791 14.4367L7.00006 17.2055L7.89221 14.4367L7.44615 12.7276L7.89221 12.3515Z" fill="#F3705A"/>
</svg>
