<svg width="15" height="16" viewBox="0 0 15 16" fill="none" xmlns="http://www.w3.org/2000/svg">
<path d="M7.5 0.648865C3.36479 0.648865 0 4.01366 0 8.14886C0 12.2841 3.36479 15.6489 7.5 15.6489C11.6352 15.6489 15 12.2841 15 8.14886C15 4.01366 11.6352 0.648865 7.5 0.648865ZM7.5 12.5242C7.15508 12.5242 6.87469 12.2447 6.87469 11.8989C6.87469 11.5539 7.15416 11.2736 7.5 11.2736C7.84492 11.2736 8.12531 11.553 8.12531 11.8989C8.12531 12.2438 7.84492 12.5242 7.5 12.5242ZM8.489 8.55009C8.2679 8.6524 8.12439 8.87534 8.12439 9.11818V9.39856C8.12531 9.7444 7.84492 10.0239 7.5 10.0239C7.15508 10.0239 6.87469 9.74348 6.87469 9.39856V9.11818C6.87469 8.38896 7.30316 7.7204 7.96509 7.41484C8.60161 7.12141 9.06189 6.34322 9.06189 5.96167C9.06281 5.10016 8.36151 4.39886 7.5 4.39886C6.63849 4.39886 5.93719 5.10016 5.93719 5.96167C5.93719 6.30659 5.65773 6.58698 5.31189 6.58698C4.96696 6.58698 4.68658 6.30659 4.68658 5.96167C4.68658 4.411 5.94841 3.14917 7.49908 3.14917C9.04976 3.14917 10.3116 4.411 10.3116 5.96167C10.3125 6.80533 9.58031 8.0477 8.489 8.55009Z" fill="url(#paint0_linear)"/>
<defs>
<linearGradient id="paint0_linear" x1="7.5" y1="0.648865" x2="7.5" y2="15.6489" gradientUnits="userSpaceOnUse">
<stop stop-color="#FFC700"/>
<stop offset="1" stop-color="#FFD540"/>
</linearGradient>
</defs>
</svg>
