<svg width="14" height="17" viewBox="0 0 14 17" fill="none" xmlns="http://www.w3.org/2000/svg">
<path fill-rule="evenodd" clip-rule="evenodd" d="M13.5992 12.1116C13.5992 11.0553 12.7428 10.1992 11.6868 10.1992H1.91244C0.856228 10.1992 0 11.0553 0 12.1116V12.8827C0 13.8115 0.405152 14.6943 1.10945 15.2996C2.43785 16.4417 4.34078 17 6.79678 17C9.25318 17 11.1573 16.4415 12.4879 15.2992C13.1933 14.6937 13.5992 13.8105 13.5992 12.8809V12.1116ZM6.79704 0L6.71055 0.00580359C6.3994 0.0480133 6.15957 0.314746 6.15957 0.637468L6.15891 1.2741L3.1844 1.27453C2.12818 1.27453 1.27195 2.13076 1.27195 3.18695V7.01574C1.27195 8.07196 2.12818 8.92818 3.1844 8.92818H10.4091C11.4654 8.92818 12.3215 8.07196 12.3215 7.01574V3.18695C12.3215 2.13076 11.4654 1.27453 10.4091 1.27453L7.43386 1.2741L7.43453 0.637468L7.42871 0.550958C7.3865 0.239804 7.11978 0 6.79704 0ZM3.82187 4.8863C3.82187 4.29985 4.29727 3.82444 4.88372 3.82444C5.47018 3.82444 5.94558 4.29985 5.94558 4.8863C5.94558 5.47275 5.47018 5.94816 4.88372 5.94816C4.29727 5.94816 3.82187 5.47275 3.82187 4.8863ZM7.64057 4.8863C7.64057 4.29985 8.11597 3.82444 8.70243 3.82444C9.28888 3.82444 9.76439 4.29985 9.76439 4.8863C9.76439 5.47275 9.28888 5.94816 8.70243 5.94816C8.11597 5.94816 7.64057 5.47275 7.64057 4.8863ZM7.87033 6.88877C7.87033 7.48174 7.38964 7.96242 6.79668 7.96242C6.20371 7.96242 5.72303 7.48174 5.72303 6.88877H7.87033Z" fill="url(#paint0_linear)"/>
<defs>
<linearGradient id="paint0_linear" x1="6.79959" y1="0" x2="6.79959" y2="17" gradientUnits="userSpaceOnUse">
<stop stop-color="#0085FF"/>
<stop offset="1" stop-color="#0061BA"/>
</linearGradient>
</defs>
</svg>
