<svg width="18" height="19" viewBox="0 0 18 19" fill="none" xmlns="http://www.w3.org/2000/svg">
<path d="M18 5.82336C18 6.31367 17.8916 6.76895 17.6748 7.18922C17.458 7.60948 17.1621 7.96554 16.7871 8.25739C16.8457 8.49087 16.875 8.70684 16.875 8.9053C16.875 9.67579 16.5996 10.3354 16.0488 10.884C15.498 11.4327 14.8359 11.7071 14.0625 11.7071C13.6523 11.7071 13.248 11.6137 12.8496 11.4269C12.5449 11.8588 12.1523 12.2003 11.6719 12.4513C11.1914 12.7023 10.6758 12.8278 10.125 12.8278C9.50391 12.8278 8.93262 12.6702 8.41113 12.355C7.88965 12.0398 7.48242 11.6137 7.18945 11.0767C6.74414 11.4969 6.22266 11.7071 5.625 11.7071C5.00391 11.7071 4.47363 11.4882 4.03418 11.0504C3.59473 10.6126 3.375 10.0844 3.375 9.46565C2.4375 9.46565 1.64062 9.13878 0.984375 8.48503C0.328125 7.83129 0 7.03746 0 6.10353C0 5.16961 0.328125 4.37578 0.984375 3.72203C1.64062 3.06829 2.4375 2.74141 3.375 2.74141C3.85547 2.74141 4.31836 2.84064 4.76367 3.0391C5.04492 2.29196 5.51953 1.682 6.1875 1.2092C6.85547 0.736399 7.60547 0.5 8.4375 0.5C9.02344 0.5 9.57422 0.625496 10.0898 0.876487C10.6055 1.12748 11.0508 1.46894 11.4258 1.90088C11.5898 1.48062 11.8594 1.14207 12.2344 0.885243C12.6094 0.628414 13.0312 0.5 13.5 0.5C14.1211 0.5 14.6514 0.718888 15.0908 1.15666C15.5303 1.59444 15.75 2.12269 15.75 2.74141C15.75 2.75309 15.7471 2.77352 15.7412 2.8027C15.7354 2.83189 15.7324 2.85232 15.7324 2.86399C16.4004 3.05077 16.9453 3.41559 17.3672 3.95843C17.7891 4.50127 18 5.12291 18 5.82336ZM3.375 16.1899C3.69141 16.1899 3.95801 16.2979 4.1748 16.5138C4.3916 16.7298 4.5 16.9925 4.5 17.3018C4.5 17.6112 4.38867 17.8768 4.16602 18.0986C3.94336 18.3204 3.67676 18.4313 3.36621 18.4313C3.05566 18.4313 2.79199 18.3204 2.5752 18.0986C2.3584 17.8768 2.25 17.6141 2.25 17.3106C2.25 17.0071 2.3584 16.7444 2.5752 16.5226C2.79199 16.3008 3.05859 16.1899 3.375 16.1899ZM6.1875 12.8278C6.65625 12.8278 7.05469 12.9912 7.38281 13.3181C7.71094 13.645 7.875 14.0419 7.875 14.5088C7.875 14.9758 7.71094 15.3727 7.38281 15.6996C7.05469 16.0265 6.65625 16.1899 6.1875 16.1899C5.71875 16.1899 5.32031 16.0265 4.99219 15.6996C4.66406 15.3727 4.5 14.9758 4.5 14.5088C4.5 14.0419 4.66406 13.645 4.99219 13.3181C5.32031 12.9912 5.71875 12.8278 6.1875 12.8278Z" fill="url(#paint0_linear)"/>
<defs>
<linearGradient id="paint0_linear" x1="9" y1="0.5" x2="9" y2="18.4313" gradientUnits="userSpaceOnUse">
<stop stop-color="#FF6B00"/>
<stop offset="1" stop-color="#E65301"/>
</linearGradient>
</defs>
</svg>
